<?xml version="1.0" encoding="UTF-8" standalone="no"?>
<svg
   xmlns:dc="http://purl.org/dc/elements/1.1/"
   xmlns:cc="http://creativecommons.org/ns#"
   xmlns:rdf="http://www.w3.org/1999/02/22-rdf-syntax-ns#"
   xmlns:svg="http://www.w3.org/2000/svg"
   xmlns="http://www.w3.org/2000/svg"
   xmlns:sodipodi="http://sodipodi.sourceforge.net/DTD/sodipodi-0.dtd"
   xmlns:inkscape="http://www.inkscape.org/namespaces/inkscape"
   width="256.0px"
   height="256.0px"
   viewBox="0 0 256.0 256.0"
   version="1.1"
   id="SVGRoot"
   sodipodi:docname="rolytics.svg"
   inkscape:version="1.0.1 (3bc2e813f5, 2020-09-07)">
  <defs
     id="defs20" />
  <sodipodi:namedview
     id="base"
     pagecolor="#ffffff"
     bordercolor="#666666"
     borderopacity="1.0"
     inkscape:pageopacity="1"
     inkscape:pageshadow="2"
     inkscape:zoom="2.8"
     inkscape:cx="105.87458"
     inkscape:cy="118.69"
     inkscape:document-units="px"
     inkscape:current-layer="layer2"
     inkscape:document-rotation="0"
     showgrid="true"
     inkscape:window-width="1920"
     inkscape:window-height="1057"
     inkscape:window-x="-8"
     inkscape:window-y="-8"
     inkscape:window-maximized="1"
     inkscape:pagecheckerboard="true">
    <inkscape:grid
       type="xygrid"
       id="grid29"
       enabled="false"
       snapvisiblegridlinesonly="false"
       visible="false" />
  </sodipodi:namedview>
  <metadata
     id="metadata23">
    <rdf:RDF>
      <cc:Work
         rdf:about="">
        <dc:format>image/svg+xml</dc:format>
        <dc:type
           rdf:resource="http://purl.org/dc/dcmitype/StillImage" />
        <dc:title></dc:title>
      </cc:Work>
    </rdf:RDF>
  </metadata>
  <g
     inkscape:groupmode="layer"
     id="layer2"
     inkscape:label="ref"
     style="display:inline">
    <path
       id="circle881"
       style="fill:#ffffff;fill-opacity:1;stroke-width:1.0171"
       d="m 87.330078,128.77344 -44.855469,44.85547 a 22.521664,22.521664 0 0 0 -6.169921,-0.86133 22.521664,22.521664 0 0 0 -22.521485,22.52148 22.521664,22.521664 0 0 0 22.521485,22.52149 22.521664,22.521664 0 0 0 22.521484,-22.52149 22.521664,22.521664 0 0 0 -0.763672,-5.81836 l 44.98242,-44.98242 z" />
    <path
       id="rect860"
       style="display:inline;fill:#3a76f5;fill-opacity:1;stroke-width:1.1561"
       d="M 58.513672,7.6464844 7.6464844,197.48633 197.48633,248.35352 248.35352,58.513672 Z M 86.556641,56.21875 199.78125,86.556641 169.44336,199.78125 56.21875,169.44336 Z" />
    <path
       sodipodi:type="star"
       style="fill:#ffffff;fill-opacity:1;stroke-width:0.715089"
       id="path873"
       sodipodi:sides="4"
       sodipodi:cx="42.589287"
       sodipodi:cy="94.374992"
       sodipodi:r1="22.633644"
       sodipodi:r2="5.7752919"
       sodipodi:arg1="1.5707963"
       sodipodi:arg2="2.3561945"
       inkscape:flatsided="false"
       inkscape:rounded="0"
       inkscape:randomized="0"
       d="M 42.589287,117.00864 38.505539,98.45874 19.955643,94.374993 38.505539,90.291244 42.589286,71.741348 46.673035,90.291244 65.222931,94.374992 46.673035,98.45874 Z" />
    <path
       sodipodi:type="star"
       style="fill:#ffffff;fill-opacity:1;stroke-width:0.763044"
       id="path875"
       sodipodi:sides="4"
       sodipodi:cx="161.51785"
       sodipodi:cy="71.607132"
       sodipodi:r1="24.151501"
       sodipodi:r2="6.1625943"
       sodipodi:arg1="1.5707963"
       sodipodi:arg2="2.3561945"
       inkscape:flatsided="false"
       inkscape:rounded="0"
       inkscape:randomized="0"
       d="m 161.51785,95.758633 -4.35761,-19.793889 -19.79389,-4.357611 19.79389,-4.357613 4.35761,-19.793889 4.35762,19.793889 19.79388,4.357611 -19.79389,4.357613 z" />
    <path
       id="path877"
       style="fill:#ffffff;fill-opacity:1;stroke-width:1.0171"
       d="m 221.25977,93.537109 a 22.521664,22.521664 0 0 0 -22.52149,22.521481 22.521664,22.521664 0 0 0 0.89258,6.27149 L 162.21094,159.75 131.27148,128.81055 a 22.521664,22.521664 0 0 0 0.26758,-3.44532 22.521664,22.521664 0 0 0 -22.52344,-22.52148 22.521664,22.521664 0 0 0 -22.521479,22.52148 22.521664,22.521664 0 0 0 22.521479,22.52149 22.521664,22.521664 0 0 0 8.31446,-1.5918 l 35.59961,35.59961 0.008,-0.008 a 12.808285,12.808285 0 0 0 9.35938,4.0664 12.808285,12.808285 0 0 0 10.18945,-5.04882 l 43.0625,-43.0625 a 22.521664,22.521664 0 0 0 5.71094,0.73828 22.521664,22.521664 0 0 0 22.52343,-22.52149 22.521664,22.521664 0 0 0 -22.52343,-22.521481 z" />
  </g>
  <g
     inkscape:label="Layer 1"
     inkscape:groupmode="layer"
     id="layer1"
     style="display:none">
    <path
       style="opacity:1;fill:#ffff00;fill-opacity:1"
       id="path906"
       cx="215.35715"
       cy="117.14286"
       r="22.5"
       d="" />
  </g>
</svg>
